# xmcd
#
# Track frame offsets: 
#        150
#        14775
#        30525
#        45375
#        56625
#        68625
#        84750
#        98775
#        118425
#        130950
#        144525
#        158325
#        171825
#        186150
#        201225
#        214800
#        227475
#        249450
#        254325
#        264825
#
# Disc length: 3709 seconds
#
# Revision: 2
# Processed by: cddbd v1.5.1PL2 Copyright (c) Steve Scherf et al.
# Submitted via: ExactAudioCopy v0.95b4
#
DISCID=130e7b14
DTITLE=ΔΙΑΦΟΡΟΙ - ΧΡΥΣΗ ΔΙΣΚΟΘΗΚΗ 1969
DYEAR=1969
DGENRE=GREEK
TTITLE0=Γρηγορης Μπιθικωτσης - Αυριο παλι
TTITLE1=Σταματης Κοκοτας - Πες πως μ' ανταμωσες
TTITLE2=Βικυ Μοσχολιου - Τι σουφταιξαν τα νειατα μου
TTITLE3=Γιαννης Καλατζης - Ο επιπολαιος
TTITLE4=Μανωλης Μητσιας - Στην Ελευσινα μια φορα
TTITLE5=Γρηγορης Μπιθικωτσης - Μια Κυριακη
TTITLE6=Βικυ Μοσχολιου - Μην πιεις νερο
TTITLE7=Γιαννης Πουλοπουλος - Το αγαλμα
TTITLE8=Δημητρα Γαλανη - Καποιο τραινο
TTITLE9=Γρηγορης Μπιθικωτσης - Ο μπαγλαμας
TTITLE10=Τολις Βοσκοπουλος - Ψυλοι στ' αυτια μου
TTITLE11=Στρατος Διονυσιου - Χθες το βραδυ στην ταβερνα
TTITLE12=Λευτερης Μυτιληναιος - Ποια εισαι εσυ
TTITLE13=Γιωτα Λυδια - Ναχα εκατο καρδιες
TTITLE14=Στελιος Καζαντζιδης, Αποστολος Καλδαρας - Ανεμωνα
TTITLE15=Γιαννης Παριος - Η θαλασσα του Πειραια
TTITLE16=Στελιος Καζαντζιδης, Αποστολος Καλδαρας - Ασ παν στην ευχη τα
TTITLE16=παλια
TTITLE17=Τολης Βοσκοπουλος - Εκεινη
TTITLE18=Λιτσα Διαμαντη, Δ. Τζανης - Μηπως εισαι ερωτευμενος
TTITLE19=Στρατος Διονυσιου - Το μπουζουκι του Νικολα
EXTD=
EXTT0=
EXTT1=
EXTT2=
EXTT3=
EXTT4=
EXTT5=
EXTT6=
EXTT7=
EXTT8=
EXTT9=
EXTT10=
EXTT11=
EXTT12=
EXTT13=
EXTT14=
EXTT15=
EXTT16=
EXTT17=
EXTT18=
EXTT19=
PLAYORDER=
